<svg width="363" height="363" viewBox="0 0 363 363" fill="none" xmlns="http://www.w3.org/2000/svg">
<path d="M181.019 350.604C196.265 350.604 208.624 338.245 208.624 322.999C208.624 314.824 205.07 307.478 199.423 302.423C194.539 298.052 188.09 295.394 181.019 295.394C173.949 295.394 167.5 298.052 162.616 302.423C156.969 307.478 153.414 314.824 153.414 322.999C153.414 338.245 165.774 350.604 181.019 350.604Z" fill="#5F77F2" stroke="#EEEEEE" stroke-width="16"/>
<path d="M162.615 249.386H199.422L199.422 302.423C194.538 298.052 188.089 295.394 181.019 295.394C173.949 295.394 167.499 298.052 162.615 302.423L162.615 249.386Z" fill="#34ACE0" stroke="#EEEEEE" stroke-width="16"/>
<path d="M160.706 248.908L101.122 234.012C93.9997 232.231 89.003 225.832 89.003 218.49L89.003 215.001C89.003 204.489 98.968 196.833 109.126 199.542L140.668 207.953C143.021 208.58 145.447 208.898 147.882 208.898L181.02 208.898L215.73 208.898C217.122 208.898 218.508 208.717 219.852 208.358L252.914 199.542C263.071 196.833 273.037 204.489 273.037 215.001V218.49C273.037 225.832 268.04 232.231 260.917 234.012L201.334 248.908C200.065 249.225 198.762 249.386 197.453 249.386L164.586 249.386C163.278 249.386 161.975 249.225 160.706 248.908Z" fill="#5F77F2" stroke="#EEEEEE" stroke-width="16"/>
<path d="M151.866 207.861C147.586 207.915 144.021 204.59 143.778 200.316L135.479 54.2519C135.185 49.0802 137.413 44.0863 141.458 40.8504L171.024 17.1978C176.867 12.523 185.171 12.523 191.014 17.1978L220.602 40.8677C224.634 44.094 226.862 49.0685 226.583 54.2255L218.705 199.92C218.476 204.164 214.967 207.488 210.717 207.488L181.489 207.488L151.866 207.861Z" fill="#AA5EF8"/>
<path d="M181.489 207.488L151.866 207.861C147.586 207.915 144.021 204.59 143.778 200.316L135.479 54.2519C135.185 49.0802 137.413 44.0863 141.458 40.8504L171.024 17.1978C176.867 12.523 185.171 12.523 191.014 17.1978L220.602 40.8677C224.634 44.094 226.862 49.0685 226.583 54.2255L218.705 199.92C218.476 204.164 214.967 207.488 210.717 207.488L181.489 207.488ZM181.489 207.488L181.019 76.6393" stroke="#EEEEEE" stroke-width="16" stroke-linecap="round"/>
</svg>
